# xmcd CD database file
#
# Track frame offsets:
#	192
#	12885
#	27247
#	40817
#	61172
#	73420
#	82615
#	97317
#	109042
#	120610
#	135685
#	146847
#
# Disc length: 2124 seconds
#
# Revision: 2
# Processed by: cddbd v1.5PL3 Copyright (c) Steve Scherf et al.
# Submitted via: CDex 1.51
#
DISCID=a4084a0c
DTITLE=Nanci Griffith - Once In A Very Blue Moon
DYEAR=1984
DGENRE=Folk
TTITLE0=Ghost in the music
TTITLE1=Love is a hard waltz
TTITLE2=Roseville fair
TTITLE3=Mary and Omie
TTITLE4=Friend out in the madness
TTITLE5=Time alone
TTITLE6=Ballad of Robin Winter-Smith
TTITLE7=Daddy said
TTITLE8=Once in a very blue moon
TTITLE9=I'm not drivin' these wheels (bring the prose to the Wheel)
TTITLE10=Year down in New Orleans
TTITLE11=Spin on a red brick floor
EXTD=YEAR: 1984
EXTT0=
EXTT1=
EXTT2=
EXTT3=
EXTT4=
EXTT5=
EXTT6=
EXTT7=
EXTT8=
EXTT9=
EXTT10=
EXTT11=
PLAYORDER=
